<?xml version="1.0" encoding="UTF-8" standalone="no"?>
<!-- Created with Inkscape (http://www.inkscape.org/) -->

<svg
   xmlns:dc="http://purl.org/dc/elements/1.1/"
   xmlns:cc="http://creativecommons.org/ns#"
   xmlns:rdf="http://www.w3.org/1999/02/22-rdf-syntax-ns#"
   xmlns:svg="http://www.w3.org/2000/svg"
   xmlns="http://www.w3.org/2000/svg"
   xmlns:sodipodi="http://sodipodi.sourceforge.net/DTD/sodipodi-0.dtd"
   xmlns:inkscape="http://www.inkscape.org/namespaces/inkscape"
   width="600"
   height="240"
   viewBox="0 0 600 240.00001"
   version="1.1"
   id="svg8"
   inkscape:version="0.92.4 (5da689c313, 2019-01-14)"
   sodipodi:docname="logo.svg">
  <defs
     id="defs2" />
  <sodipodi:namedview
     id="base"
     pagecolor="#000000"
     bordercolor="#666666"
     borderopacity="1.0"
     inkscape:pageopacity="0"
     inkscape:pageshadow="2"
     inkscape:zoom="1.4"
     inkscape:cx="283.12132"
     inkscape:cy="115.47795"
     inkscape:document-units="px"
     inkscape:current-layer="layer1"
     showgrid="true"
     units="px"
     inkscape:window-width="1920"
     inkscape:window-height="1016"
     inkscape:window-x="1600"
     inkscape:window-y="27"
     inkscape:window-maximized="1"
     inkscape:snap-global="false" />
  <metadata
     id="metadata5">
    <rdf:RDF>
      <cc:Work
         rdf:about="">
        <dc:format>image/svg+xml</dc:format>
        <dc:type
           rdf:resource="http://purl.org/dc/dcmitype/StillImage" />
        <dc:title></dc:title>
      </cc:Work>
    </rdf:RDF>
  </metadata>
  <g
     inkscape:label="Layer 1"
     inkscape:groupmode="layer"
     id="layer1"
     transform="translate(0,-882.51965)">
    <path
       sodipodi:nodetypes="ccccccccccccccccccccccccc"
       inkscape:connector-curvature="0"
       d="m 452.3727,1012.075 c 17.12478,11.5373 36.34993,15.9333 61.379,0.596 m 46.74557,-0.5536 c 2.6764,9.6473 5.30696,36.8056 -0.59591,53.0362 m -30.39154,-94.75008 31.58337,41.71388 c 12.98144,-8.842 23.54145,-22.72398 33.96702,-41.71388 m -146.26298,89.94038 c 11.87486,-26.2072 20.76502,-49.5829 34.56293,-94.15412 14.99046,34.65742 25.04886,65.79202 34.56293,96.53782 m -132.84615,-5.0141 c 1.38399,-26.4902 2.61231,-53.9279 1.19182,-87.00327 16.80335,2.00701 33.25809,6.24846 41.52387,17.8002 25.03743,35.58227 -9.08326,73.66837 -42.71569,69.20307 z m -33.17992,-83.77686 c -0.25611,39.70466 1.47473,64.17616 3.57548,85.81156 m -72.26757,-82.33833 -5.95913,82.83193 c 24.81464,3.8659 37.69967,1.767 50.05666,-0.596 M 19.215646,1008.9933 c 34.389527,10.255 58.708313,7.0655 71.509517,2.3837 m -4.171389,-39.92626 -9.432361,96.70736 M 17.725864,956.25498 31.380733,1068.4137"
       style="fill:none;stroke:#fdfd4b;stroke-width:4;stroke-linecap:round;stroke-linejoin:round;stroke-miterlimit:4;stroke-dasharray:none;stroke-opacity:1;opacity:0.142"
       id="path4742" />
    <path
       id="path4696"
       style="fill:none;stroke:#fdfd4b;stroke-width:4;stroke-linecap:butt;stroke-linejoin:miter;stroke-miterlimit:4;stroke-dasharray:none;stroke-opacity:1"
       d="m 192.32122,929.1033 c 2.87433,-10.4988 2.85006,-16.07957 7.30719,-21.03861 6.63343,-2.46745 22.56577,0.70344 26.54691,2.78685 10.46549,5.47681 7.09357,18.86986 -9.27112,12.27601 -6.05059,-3.67886 -23.08172,-16.66928 -28.18177,-24.48068 -16.77268,-23.12721 -34.78603,11.43803 -9.31964,10.86089 l 21.55917,-1.85731 m -19.06898,20.26033 c -8.82725,18.58459 -29.25647,19.75115 -46.87791,31.09428 -14.77742,9.59049 -25.07956,22.90379 -28.11164,40.54143 -8.546584,52.54661 42.21618,79.27781 89.32329,73.25101 19.41925,-3.1976 37.34192,-13.035 46.73217,-32.1134 14.01298,-29.3571 6.93389,-56.5699 -14.76209,-75.77845 -13.34116,-12.06333 -22.72617,-11.89721 -26.04325,-34.01462 -1.60084,-6.96817 -16.76806,-10.13937 -20.26057,-2.98025 z"
       inkscape:connector-curvature="0"
       sodipodi:nodetypes="ccscccccccccccc" />
    <path
       id="path4722"
       style="fill:none;stroke:#fdfd4b;stroke-width:4;stroke-linecap:round;stroke-linejoin:round;stroke-miterlimit:4;stroke-dasharray:none;stroke-opacity:1"
       d="m 447.3727,1006.3607 c 17.12478,11.5373 36.34993,15.9333 61.379,0.596 m 46.74557,-0.5536 c 2.6764,9.6473 5.30696,36.8056 -0.59591,53.0362 m -30.39154,-94.75007 31.58337,41.71387 c 12.98144,-8.84196 23.54145,-22.72397 33.96702,-41.71387 m -146.26298,89.94037 c 11.87486,-26.2072 20.76502,-49.5829 34.56293,-94.15411 14.99046,34.65744 25.04886,65.79201 34.56293,96.53781 m -132.84615,-5.0141 c 1.38399,-26.4902 2.61231,-53.92785 1.19182,-87.00326 16.80335,2.00701 33.25809,6.24846 41.52387,17.8002 25.03743,35.58226 -9.08326,73.66836 -42.71569,69.20306 z m -33.17992,-83.77685 c -0.25611,39.70465 1.47473,64.17615 3.57548,85.81155 m -72.26757,-82.33832 -5.95913,82.83192 c 24.81464,3.8659 37.69967,1.767 50.05666,-0.596 M 14.215646,1003.279 c 34.389527,10.255 58.708313,7.0655 71.509517,2.3837 m -4.171389,-39.92625 -9.432361,96.70735 M 12.725864,950.54069 26.380733,1062.6994"
       inkscape:connector-curvature="0"
       sodipodi:nodetypes="ccccccccccccccccccccccccc" />
    <path
       style="fill:#fdfd4b;stroke:none;stroke-width:0.83427769px;stroke-linecap:butt;stroke-linejoin:miter;stroke-opacity:1;fill-opacity:1"
       d="m 146.32617,98.660156 c -11.59328,-0.145048 -19.53546,3.228454 -23.10547,18.388674 -2.32404,10.63176 -0.11404,26.60915 12.40625,30.59375 19.76681,5.3602 22.25783,-2.0068 71.67578,7.875 11.87868,1.3644 27.69758,-9.55591 28.93555,-26.09961 -0.3293,-22.51572 -18.99717,-21.30896 -39.80859,-23.71485 -15.14236,-2.00135 -28.75741,-3.06147 -41.50391,-6.482417 -3.05555,-0.306589 -5.92423,-0.527074 -8.59961,-0.560547 z m 5.99414,20.607424 c 2.05632,9.9e-4 3.72275,1.66829 3.72266,3.72461 9e-5,2.05632 -1.66634,3.72362 -3.72266,3.72461 -2.05708,9e-5 -3.7247,-1.66753 -3.72461,-3.72461 -9e-5,-2.05708 1.66753,-3.7247 3.72461,-3.72461 z m 56.09766,5.42354 c 2.30417,-2.6e-4 4.17214,1.86771 4.17187,4.17188 2.7e-4,2.30417 -1.8677,4.17214 -4.17187,4.17187 -2.30417,2.7e-4 -4.17215,-1.86769 -4.17188,-4.17187 -2.7e-4,-2.30418 1.8677,-4.17215 4.17188,-4.17188 z"
       transform="translate(0,882.51965)"
       id="path4726"
       inkscape:connector-curvature="0"
       sodipodi:nodetypes="sccccccscccccccccc" />
  </g>
</svg>
