<?xml version="1.0" encoding="UTF-8" standalone="no"?>

<svg
   xmlns="http://www.w3.org/2000/svg"
   width="240"
   height="240"
   viewBox="0 0 240 240"
   version="1.1"
   id="svg8">
  <g
     id="layer1"
     transform="translate(0,-882.51965)">
    <path
       id="path4696"
       style="fill:none;stroke:rgb(253, 235, 75);stroke-width:4;stroke-linecap:butt;stroke-linejoin:miter;stroke-miterlimit:4;stroke-dasharray:none;stroke-opacity:1"
       d="m 134.46408,944.81759 c 2.87433,-10.4988 2.85006,-16.07957 7.30719,-21.03861 6.63343,-2.46745 22.56577,0.70344 26.54691,2.78685 10.46549,5.47681 7.09357,18.86986 -9.27112,12.27601 -6.05059,-3.67886 -23.08172,-16.66928 -28.18177,-24.48068 -16.77268,-23.12721 -34.786033,11.43803 -9.31964,10.86089 l 21.55917,-1.85731 m -19.06898,20.26033 c -8.82725,18.58459 -29.256473,19.75115 -46.877913,31.09428 -14.77742,9.59049 -25.07956,22.90379 -28.11164,40.54145 -8.546584,52.5466 42.21618,79.2778 89.323293,73.251 19.41925,-3.1976 37.34192,-13.035 46.73217,-32.1134 14.01298,-29.3571 6.93389,-56.56991 -14.76209,-75.77846 -13.34116,-12.06333 -22.72617,-11.89721 -26.04325,-34.01462 -1.60084,-6.96817 -16.76806,-10.13937 -20.26057,-2.98025 z"
      />
    <path
       style="fill:rgb(253, 235, 75);fill-opacity:1;stroke:none;stroke-width:0.83427769px;stroke-linecap:butt;stroke-linejoin:miter;stroke-opacity:1"
       d="m 88.469027,996.89409 c -11.59328,-0.14505 -19.53546,3.22841 -23.10547,18.38871 -2.32404,10.6317 -0.11404,26.6091 12.40625,30.5937 19.76681,5.3602 22.257833,-2.0068 71.675783,7.875 11.87868,1.3644 27.69758,-9.5559 28.93555,-26.0996 -0.3293,-22.5157 -18.99717,-21.309 -39.80859,-23.7148 -15.14236,-2.0014 -28.75741,-3.0615 -41.503913,-6.48246 -3.05555,-0.30659 -5.92423,-0.52708 -8.59961,-0.56055 z m 5.99414,20.60741 c 2.05632,0 3.72275,1.6683 3.72266,3.7246 9e-5,2.0563 -1.66634,3.7236 -3.72266,3.7246 -2.05708,10e-5 -3.7247,-1.6675 -3.72461,-3.7246 -9e-5,-2.0571 1.66753,-3.7247 3.72461,-3.7246 z m 56.097663,5.4236 c 2.30417,-3e-4 4.17214,1.8677 4.17187,4.1718 2.7e-4,2.3042 -1.8677,4.1722 -4.17187,4.1719 -2.30417,3e-4 -4.17215,-1.8677 -4.17188,-4.1719 -2.7e-4,-2.3041 1.8677,-4.1721 4.17188,-4.1718 z"
       id="path4726"
       />
  </g>
</svg>
