<?xml version="1.0" encoding="UTF-8" standalone="no"?>
<!-- Created with Inkscape (http://www.inkscape.org/) -->

<svg
   xmlns:dc="http://purl.org/dc/elements/1.1/"
   xmlns:cc="http://creativecommons.org/ns#"
   xmlns:rdf="http://www.w3.org/1999/02/22-rdf-syntax-ns#"
   xmlns:svg="http://www.w3.org/2000/svg"
   xmlns="http://www.w3.org/2000/svg"
   xmlns:sodipodi="http://sodipodi.sourceforge.net/DTD/sodipodi-0.dtd"
   xmlns:inkscape="http://www.inkscape.org/namespaces/inkscape"
   width="320"
   height="240"
   viewBox="0 0 320 240"
   version="1.1"
   id="svg8"
   inkscape:version="0.92.4 (5da689c313, 2019-01-14)"
   sodipodi:docname="sun.svg">
  <defs
     id="defs2" />
  <sodipodi:namedview
     id="base"
     pagecolor="#ffffff"
     bordercolor="#666666"
     borderopacity="1.0"
     inkscape:pageopacity="0.0"
     inkscape:pageshadow="2"
     inkscape:zoom="1.4"
     inkscape:cx="220.0296"
     inkscape:cy="126.00025"
     inkscape:document-units="px"
     inkscape:current-layer="layer1"
     showgrid="false"
     units="px"
     inkscape:snap-global="false"
     inkscape:window-width="1920"
     inkscape:window-height="1016"
     inkscape:window-x="1600"
     inkscape:window-y="27"
     inkscape:window-maximized="1" />
  <metadata
     id="metadata5">
    <rdf:RDF>
      <cc:Work
         rdf:about="">
        <dc:format>image/svg+xml</dc:format>
        <dc:type
           rdf:resource="http://purl.org/dc/dcmitype/StillImage" />
        <dc:title></dc:title>
      </cc:Work>
    </rdf:RDF>
  </metadata>
  <g
     inkscape:label="Layer 1"
     inkscape:groupmode="layer"
     id="layer1"
     transform="translate(0,-233.49999)">
    <path
       style="fill:#fdeb4b;fill-opacity:1;stroke:none;stroke-width:1px;stroke-linecap:butt;stroke-linejoin:miter;stroke-opacity:1"
       d="M 166.19141 14.388672 L 171.24219 57.320312 L 178.81836 56.816406 C 180.33359 51.765646 197 17.925781 197 17.925781 L 166.19141 14.388672 z M 129.32031 15.400391 L 94.470703 17.419922 L 126.79492 61.867188 L 132.85547 59.845703 L 129.32031 15.400391 z M 267.20703 16.410156 L 210.63867 76.513672 L 214.67773 83.080078 L 288.41992 33.582031 L 267.20703 16.410156 z M 43.962891 28.027344 L 27.800781 42.673828 L 99.015625 80.048828 L 102.55078 76.007812 L 43.962891 28.027344 z M 150.0293 63.380859 L 126.29102 72.978516 L 107.60156 83.583984 L 100.53125 104.79883 L 102.55078 134.0918 L 121.74414 158.33594 L 160.63477 161.87109 L 202.55664 148.23438 L 207.60742 98.736328 L 185.38477 69.947266 L 150.0293 63.380859 z M 18.708984 73.482422 L 19.214844 102.27344 L 90.935547 108.33398 L 91.439453 100.75781 L 18.708984 73.482422 z M 303.57227 81.058594 L 219.72852 102.77734 L 221.24414 109.84961 L 305.08789 114.39453 L 303.57227 81.058594 z M 89.923828 124.49609 L 18.708984 129.54688 L 22.244141 153.28516 L 91.945312 134.0918 L 89.923828 124.49609 z M 219.72852 134.0918 L 217.20312 143.18359 L 281.85352 177.5293 L 302.5625 149.75 L 219.72852 134.0918 z M 95.480469 149.24414 L 16.689453 191.67188 L 30.830078 210.86328 L 99.015625 153.79102 L 95.480469 149.24414 z M 194.98047 159.3457 L 190.93945 162.88086 L 234.37695 225.51172 L 248.01367 201.77344 L 194.98047 159.3457 z M 122.25 166.92188 L 74.267578 220.96484 L 93.460938 225.00586 L 133.86719 168.4375 L 122.25 166.92188 z M 169.2207 171.46875 L 161.14062 171.97266 L 158.61523 232.58203 L 183.36328 224.50195 L 169.2207 171.46875 z "
       transform="translate(0,233.49999)"
       id="path815" />
  </g>
</svg>
